<?xml version="1.0" standalone="no"?>
<!DOCTYPE svg PUBLIC "-//W3C//DTD SVG 20010904//EN"
 "http://www.w3.org/TR/2001/REC-SVG-20010904/DTD/svg10.dtd">
<svg version="1.0" xmlns="http://www.w3.org/2000/svg"
 width="256.000000pt" height="256.000000pt" viewBox="0 0 256.000000 256.000000"
 preserveAspectRatio="xMidYMid meet">

<g transform="translate(0.000000,256.000000) scale(0.100000,-0.100000)"
fill="#000000" stroke="none">
<path d="M1158 2060 c-315 -57 -553 -272 -640 -577 -32 -111 -32 -295 0 -406
36 -128 102 -245 191 -340 44 -48 139 -123 145 -116 14 15 277 451 274 454 -2
2 -55 18 -118 35 -63 17 -116 32 -117 34 -2 2 60 64 137 140 77 75 140 138
140 140 0 2 -40 14 -89 27 -70 18 -88 26 -79 36 5 7 105 92 222 190 402 337
379 316 361 329 -58 42 -315 75 -427 54z"/>
<path d="M1542 1753 c-78 -109 -142 -202 -143 -208 0 -5 46 -22 102 -37 55
-15 103 -29 105 -31 2 -2 -62 -68 -141 -147 -80 -79 -144 -144 -142 -145 1 -1
43 -12 92 -25 50 -13 93 -26 98 -30 4 -3 -12 -24 -35 -45 -24 -22 -155 -145
-291 -274 -280 -265 -269 -244 -148 -281 247 -77 493 -37 706 115 140 99 246
254 297 432 32 111 32 295 0 406 -36 125 -101 242 -187 336 -39 43 -150 131
-164 131 -4 0 -71 -89 -149 -197z"/>
</g>
</svg>
